<?xml version="1.0" encoding="UTF-8"?>
<svg id="Isolation_Mode" xmlns="http://www.w3.org/2000/svg" version="1.1" viewBox="0 0 632.87 154.49">
  <!-- Generator: Adobe Illustrator 30.2.1, SVG Export Plug-In . SVG Version: 2.1.1 Build 1)  -->
  <defs>
    <style>
      .st0 {
        fill: #83d105;
      }

      .st1 {
        fill: #0059f2;
      }
    </style>
  </defs>
  <path class="st1" d="M232.28,65.64c-9.56-1.78-12.24-2.93-12.24-5.99s2.8-4.34,8.8-4.34c6.89,0,13.65,2.17,17.72,4.46,3.45-2.68,5.87-7.14,6.63-13.26-4.2-2.68-11.98-5.61-24.6-5.61-15.17,0-26.65,7.14-26.65,19.64,0,13.39,10.45,16.96,20.4,19,9.94,1.78,13.13,3.44,13.13,6.63,0,2.68-2.04,4.85-7.9,4.85-9.18,0-15.43-3.32-19.89-6.12-3.7,2.3-6.5,6.76-7.52,12.75,3.95,3.32,13.13,7.65,26.77,7.65,17.72,0,27.41-7.9,27.41-20.52h0c0-13.13-10.07-17.09-22.06-19.13M157.18,66.92c.89-6.89,5.1-11.6,12.37-11.6,7.78.38,10.58,5.74,10.58,11.6h-22.95ZM169.42,40.9c-18.1,0-31.62,13.39-31.62,32.51,0,20.27,13.51,31.87,32.25,31.87,13.13,0,21.42-4.46,26.77-8.54-.51-4.72-2.93-9.82-6.89-12.88-4.72,3.06-10.2,6.12-17.85,6.12-9.05,0-13.77-3.82-14.91-12.37h40.29c.47-2.95.68-5.94.64-8.93,0-16.96-11.6-27.79-28.69-27.79M129.38,84.89c-2.68,2.42-5.87,4.46-11.73,4.46-9.82,0-14.28-7.52-14.28-16.57s4.85-16.32,14.15-16.32c3.97,0,7.79,1.51,10.71,4.21,4.72-2.93,8.67-8.28,9.82-13.39-3.57-3.19-11.73-6.76-21.04-6.76-18.74,0-32.76,12.62-32.76,32.51h0c0,20.4,12.75,32.25,33.28,32.25,9.82,0,17.21-3.95,21.54-7.91-1.53-5.74-4.97-10.2-9.69-12.49M61.55,90.5c-2.98.9-6.07,1.37-9.18,1.4-7.27,0-10.97-2.93-10.97-7.39s3.7-6.5,9.69-6.5c3.53-.03,7.05.44,10.45,1.4v11.09ZM50.72,40.91c-13.26,0-22.82,5.74-26.26,8.8.89,5.61,4.08,9.82,8.16,12.11,3.19-2.42,9.31-5.22,16.45-5.22,8.92,0,12.49,3.7,12.49,8.93v2.42c-3.69-1.15-7.9-1.66-12.75-1.78-15.42-.13-26.39,6.37-26.39,19.12s10.07,19.89,27.41,19.89c10.49,0,20.88-2.04,30.6-5.99v-31.74c0-18.87-12.11-26.52-29.71-26.52M274.09,89.68h0c-3.65-1.09-7.12-2.7-10.31-4.79h0c-3.39,2.1-6.02,6.03-7.23,11.28,8.24-.46,16.09-2.33,23.34-5.38-1.96-.21-3.9-.57-5.79-1.11M278.43,79.54c4.48.8,7.58,1.58,9.64,2.49h0s0,0,0,0c1.76.77,2.75,1.64,3.2,2.69,5.27-3.47,10.06-7.62,14.21-12.34-.29-.27-.59-.53-.9-.78h0c-4.06-3.24-9.86-4.88-16.21-5.96h0c-9.56-1.78-12.24-2.93-12.24-5.99s2.8-4.34,8.8-4.34c6.89,0,13.64,2.17,17.72,4.46,3.44-2.68,5.87-7.14,6.63-13.26-4.21-2.68-11.98-5.61-24.61-5.61-15.17,0-26.64,7.14-26.64,19.64,0,13.39,10.45,16.96,20.4,19"/>
  <path class="st0" d="M567.25,97.95c-12.25,0-18.18-8.84-18.18-20.58,0-15.03,8.08-29.29,23.11-29.29,11.87,0,17.68,8.21,17.68,20.45,0,15.53-8.33,29.41-22.6,29.41h0ZM566.36,104.13c18.69,0,30.81-15.78,30.81-36.87,0-15.03-8.46-25.5-23.99-25.5-18.81,0-31.31,15.66-31.31,37,0,14.51,8.71,25.38,24.49,25.38M536.06,41.75c-7.72,0-15.33,1.82-22.22,5.31l-9.72,55.68c1.12.27,2.26.39,3.41.38,1.23,0,2.46-.12,3.66-.38l8.97-51.51c4.72-1.94,9.8-2.88,14.9-2.78,3.36-.06,6.71.32,9.97,1.14,1.56-1.68,2.57-3.79,2.91-6.06-3.83-1.25-7.84-1.85-11.87-1.77M486.06,90.37c-4.45,3.32-9.85,5.13-15.4,5.18-11.24,0-18.18-6.56-18.18-18.18,0-18.56,12.25-29.04,26.77-29.04,4.76-.24,9.5.76,13.76,2.9l-6.94,39.14ZM480.25,41.75c-18.31,0-35.1,13.26-35.1,36.49,0,15.03,9.85,23.62,23.86,23.62,5.55-.1,10.99-1.62,15.78-4.42l-.76,4.29c-1.9,11.23-9.85,19.07-21.47,19.07-10.23,0-15.4-3.91-18.56-8.21-2.29.84-4.18,2.51-5.3,4.67,4.55,6.06,12.12,9.85,23.86,9.85,15.28,0,25.76-9.97,28.53-25.38l9.6-54.67c-6.16-3.7-13.27-5.55-20.45-5.31M405.88,97.81c-8.46,0-13.89-6.31-13.89-17.42,0-19.32,12.75-32.07,27.65-32.07,4.55-.29,9.09.67,13.13,2.78l-5.43,30.82c-5.18,9.97-13.26,15.9-21.47,15.9M420.66,41.75c-19.06,0-35.98,15.66-35.98,39.9,0,15.28,8.97,22.6,19.7,22.6,8.33,0,15.53-4.17,21.21-11.11l-1.26,9.98c2.08.44,4.23.44,6.31,0l9.85-56.06c-4.17-3.03-10.48-5.31-19.82-5.31"/>
  <path class="st0" d="M351.49,90.5c-2.98.9-6.07,1.37-9.18,1.4-7.27,0-10.97-2.93-10.97-7.4s3.7-6.5,9.69-6.5c3.53-.03,7.06.44,10.46,1.4v11.09ZM342.86,40.97h0c-.73-.03-1.46-.06-2.22-.06h0c-2.89,0-5.59.28-8.1.74-2.14,6.93-5.18,13.46-8.99,19.45,3.38-2.23,8.98-4.51,15.43-4.51h0c8.92,0,12.5,3.7,12.5,8.92v2.42c-3.7-1.15-7.91-1.66-12.75-1.78-15.42-.13-26.39,6.37-26.39,19.12s10.07,19.89,27.41,19.89c10.49,0,20.88-2.04,30.6-5.99v-31.75c0-18.06-11.11-25.82-27.49-26.46"/>
</svg>