<?xml version="1.0" encoding="UTF-8"?>
<svg id="Layer_1" xmlns="http://www.w3.org/2000/svg" version="1.1" viewBox="0 0 272.87 85.04">
  <!-- Generator: Adobe Illustrator 29.6.1, SVG Export Plug-In . SVG Version: 2.1.1 Build 9)  -->
  <defs>
    <style>
      .st0 {
        fill: #1f4389;
      }

      .st1 {
        fill: #01905d;
      }
    </style>
  </defs>
  <g>
    <path class="st1" d="M148.11,4.46c-4.83,8.42-2.73,16.04-7.45,20.89-3.79,3.91-7.31,3.78-11.44,3.78-1.44,0-4.23.13-5.4,1-.68-2.22-.97-4.67-.97-7,0-4.01.87-7.57,3.67-10.45,5.36-5.51,15.06-7.27,21.59-8.22"/>
    <g>
      <path class="st0" d="M222.45,37.63h-8.37v14.27c0,4.06,2.08,4.82,4.77,4.82.94,0,1.95-.14,2.97-.28l.63,6.39c-2.19.4-5.12.74-7.02.74-5.77,0-10.89-2.07-10.89-9.35v-16.58h-4.86v-6.3h4.86v-6.95l9.54-2.78v9.73h8.37v6.3Z"/>
      <path class="st0" d="M196.79,62.92h-9.54v-20.28c0-2.98-1.22-4.63-4.5-4.63-2.47,0-4.06,1.22-5.85,2.69v22.23h-9.54v-31.59h9.27v2.78c3.11-2.15,6.67-3.52,10.53-3.52,6.08,0,9.63,3.89,9.63,9.82v22.51Z"/>
      <path class="st0" d="M96.54,62.92h-9.54v-20.28c0-2.98-1.22-4.63-4.5-4.63-2.46,0-4.06,1.22-5.85,2.69v22.23h-9.54v-31.59h9.27v2.78c3.11-2.15,6.67-3.52,10.53-3.52,6.08,0,9.63,3.89,9.63,9.82v22.51Z"/>
      <path class="st0" d="M65.15,31.33l-15.3,38.25c-2.35,5.88-7.07,10.19-13.5,10.19-3.21,0-4.92-.43-7.02-.93l1.35-6.3c1.69.39,2.97.56,4.14.56,3.84,0,5.88-3.36,7.74-7.97l.9-2.22-11.88-31.59h10.26l5.58,15.66c.67,1.89,1.05,3.82,1.35,5.18.35-1.37,1.03-3.64,1.71-5.46l5.76-15.38h8.91Z"/>
      <path class="st0" d="M31.45,52.82c0,6.87-6.17,10.65-13.5,10.65-4.77,0-8.62-.82-12.69-2.5l2.61-6.39c2.42,1.01,5.9,2.13,8.73,2.13,2.22,0,5.31-.28,5.31-3.06,0-1.3-.79-1.97-2.25-2.41-1.83-.56-4.63-1.05-6.48-1.58-3.89-1.1-7.11-3.2-7.11-9.08,0-6.51,5.4-10.56,12.78-10.56,4.87,0,7.97.66,10.71,1.48l-2.43,6.39c-1.21-.57-4.6-1.39-7.02-1.39-2.62,0-4.41,1.03-4.41,2.68,0,.82.5,1.86,1.89,2.32,1.5.49,3.86.94,5.85,1.39,4.06.92,8.01,3.32,8.01,9.91"/>
      <path class="st0" d="M242.46,54.49v-5.83c-4.42-.07-8.55.38-8.55,4.72,0,2.68,2.2,3.52,3.87,3.52,1.98,0,3.51-1.02,4.68-2.41M251.73,62.92h-9v-2.5c-2.34,2.13-5.36,3.15-8.73,3.15-5.71,0-9.63-2.84-9.63-8.8,0-10.47,10.15-12.1,18.08-12.14v-.83c0-2.6-.96-4.45-5.49-4.45-3.06,0-6.54,1.56-8.82,2.96l-2.34-5.83c4.05-2.26,9.08-3.89,13.86-3.89,7.33,0,12.06,3.61,12.06,9.91v22.41Z"/>
      <path class="st0" d="M153.37,42.91c.16-3.48-1.53-5.65-4.86-5.65s-5.13,2.43-5.67,5.65h10.53ZM163.18,45.97c0,1.05-.03,2.12-.09,3.24h-20.34c.09,4.59,2.31,7.32,8.82,7.32,2.88,0,6.35-1.35,7.83-2.41l2.51,5.84c-4.2,2.35-8.73,3.61-13.76,3.61-9.54,0-15.48-6.32-15.48-16.39s7.79-16.58,16.19-16.58c10.48,0,14.31,6.3,14.31,15.38"/>
      <path class="st0" d="M123.16,68.1c0-2.58-2-3.52-4.05-3.52h-8.37c-1.27.75-3.24,2.39-3.24,4.54,0,2.77,3.63,4.63,7.92,4.63s7.74-2.1,7.74-5.65M120.64,40.96c0-2.64-1.42-4.81-4.59-4.81-2.9,0-4.68,2.52-4.68,4.81,0,2.65,1.6,4.82,4.5,4.82,3.18,0,4.77-2.17,4.77-4.82M132.7,66.81c0,9.21-8.92,13.48-17.73,13.52-7.75.04-15.21-2.26-15.21-9.91,0-3.58,3.08-5.98,4.95-7.22-1.04-.61-1.98-1.09-2.79-2.04-.85-1-1.53-2.46-1.53-4.91,0-3.09,2.64-5.94,5.85-7.78-1.78-.96-4.14-2.51-4.14-7.69,0-6.73,6.2-10.28,14.31-10.28,6.88,0,13.5,1.7,13.5,10.01s-7.25,10.84-14.58,10.84c-1.36,0-2.58-.22-3.78-.46-.78.43-2.34,1.49-2.34,2.69,0,2.43,3.22,2.78,4.68,2.78h7.56c7.01,0,11.25,3.5,11.25,10.47"/>
    </g>
  </g>
  <path class="st0" d="M262.44,51.97c2.85,0,5.38,2.04,5.38,5.24s-2.54,5.25-5.38,5.25-5.38-2.06-5.38-5.25,2.53-5.24,5.38-5.24M262.44,61.35c2.17,0,3.94-1.74,3.94-4.14s-1.77-4.09-3.94-4.09-3.96,1.72-3.96,4.09,1.75,4.14,3.96,4.14M260.33,54.26h2.22c1.48,0,2.3.48,2.3,1.74,0,1.08-.68,1.49-1.54,1.57l1.57,2.58h-1.23l-1.42-2.52h-.73v2.52h-1.16v-5.88l-.02-.02ZM261.51,56.73h1.03c.66,0,1.14-.1,1.14-.83,0-.63-.68-.73-1.21-.73h-.98v1.56h.02Z"/>
</svg>