<?xml version="1.0" encoding="UTF-8"?>
<svg id="Layer_1" xmlns="http://www.w3.org/2000/svg" xmlns:xlink="http://www.w3.org/1999/xlink" version="1.1" viewBox="0 0 743.3 449.64">
  <!-- Generator: Adobe Illustrator 30.2.1, SVG Export Plug-In . SVG Version: 2.1.1 Build 1)  -->
  <defs>
    <style>
      .st0 {
        fill: url(#linear-gradient2);
      }

      .st1 {
        fill: url(#linear-gradient1);
      }

      .st2 {
        fill: url(#linear-gradient9);
      }

      .st3 {
        fill: url(#linear-gradient3);
      }

      .st4 {
        fill: url(#linear-gradient6);
      }

      .st5 {
        fill: url(#linear-gradient8);
      }

      .st6 {
        fill: url(#linear-gradient7);
      }

      .st7 {
        fill: url(#linear-gradient5);
      }

      .st8 {
        fill: url(#linear-gradient4);
      }

      .st9 {
        fill: url(#linear-gradient18);
      }

      .st10 {
        fill: url(#linear-gradient13);
      }

      .st11 {
        fill: url(#linear-gradient12);
      }

      .st12 {
        fill: url(#linear-gradient15);
      }

      .st13 {
        fill: url(#linear-gradient16);
      }

      .st14 {
        fill: url(#linear-gradient11);
      }

      .st15 {
        fill: url(#linear-gradient10);
      }

      .st16 {
        fill: url(#linear-gradient17);
      }

      .st17 {
        fill: url(#linear-gradient14);
      }

      .st18 {
        fill: url(#linear-gradient19);
      }

      .st19 {
        fill: url(#linear-gradient21);
      }

      .st20 {
        fill: url(#linear-gradient20);
      }

      .st21 {
        fill: url(#linear-gradient);
      }

      .st22 {
        fill: #0012f7;
      }

      .st23 {
        fill: #0059f2;
      }
    </style>
    <linearGradient id="linear-gradient" x1="362.81" y1="438.92" x2="362.81" y2="24.96" gradientUnits="userSpaceOnUse">
      <stop offset="0" stop-color="#008fff"/>
      <stop offset="1" stop-color="#2300ff"/>
    </linearGradient>
    <linearGradient id="linear-gradient1" x1="8.01" y1="218.77" x2="682.93" y2="218.77" gradientUnits="userSpaceOnUse">
      <stop offset="0" stop-color="blue"/>
      <stop offset="1" stop-color="#23009a"/>
    </linearGradient>
    <linearGradient id="linear-gradient2" x1="18.61" y1="324.95" x2="77.92" y2="324.95" gradientUnits="userSpaceOnUse">
      <stop offset="0" stop-color="#7bd7ff"/>
      <stop offset="1" stop-color="#23a3ff"/>
    </linearGradient>
    <linearGradient id="linear-gradient3" x1="66.08" y1="334.9" x2="141.49" y2="334.9" xlink:href="#linear-gradient2"/>
    <linearGradient id="linear-gradient4" x1="124.06" y1="342.04" x2="194.54" y2="342.04" xlink:href="#linear-gradient2"/>
    <linearGradient id="linear-gradient5" x1="188.3" y1="346.79" x2="247.85" y2="346.79" xlink:href="#linear-gradient2"/>
    <linearGradient id="linear-gradient6" x1="244.55" y1="350.26" x2="302.45" y2="350.26" xlink:href="#linear-gradient2"/>
    <linearGradient id="linear-gradient7" x1="296.41" y1="352.53" x2="359.35" y2="352.53" xlink:href="#linear-gradient2"/>
    <linearGradient id="linear-gradient8" x1="354.7" y1="352.59" x2="378.59" y2="352.59" xlink:href="#linear-gradient2"/>
    <linearGradient id="linear-gradient9" x1="372.31" y1="351.01" x2="444.06" y2="351.01" xlink:href="#linear-gradient2"/>
    <linearGradient id="linear-gradient10" x1="438.79" y1="349.58" x2="467.23" y2="349.58" xlink:href="#linear-gradient2"/>
    <linearGradient id="linear-gradient11" x1="461.89" y1="348.21" x2="521.55" y2="348.21" xlink:href="#linear-gradient2"/>
    <linearGradient id="linear-gradient12" x1="515.69" y1="343.3" x2="582.4" y2="343.3" xlink:href="#linear-gradient2"/>
    <linearGradient id="linear-gradient13" x1="565.72" y1="337.02" x2="628.67" y2="337.02" xlink:href="#linear-gradient2"/>
    <linearGradient id="linear-gradient14" x1="617.11" y1="327.22" x2="677.7" y2="327.22" xlink:href="#linear-gradient2"/>
    <linearGradient id="linear-gradient15" x1="347.82" y1="82.98" x2="347.82" y2="27.31" xlink:href="#linear-gradient2"/>
    <linearGradient id="linear-gradient16" x1="75.89" y1="177.56" x2="187.04" y2="177.56" xlink:href="#linear-gradient2"/>
    <linearGradient id="linear-gradient17" x1="179.71" y1="162.27" x2="289.65" y2="162.27" xlink:href="#linear-gradient2"/>
    <linearGradient id="linear-gradient18" x1="291.42" y1="158.33" x2="410.2" y2="158.33" xlink:href="#linear-gradient2"/>
    <linearGradient id="linear-gradient19" x1="414.83" y1="162.64" x2="523.28" y2="162.64" xlink:href="#linear-gradient2"/>
    <linearGradient id="linear-gradient20" x1="505.44" y1="179.39" x2="612.8" y2="179.39" xlink:href="#linear-gradient2"/>
    <linearGradient id="linear-gradient21" x1="342.46" y1="302.53" x2="342.46" y2="211.28" gradientTransform="translate(70.77 -6.32) rotate(1.46) scale(.78 1) skewX(3.32)" gradientUnits="userSpaceOnUse">
      <stop offset="0" stop-color="#7bff00"/>
      <stop offset="1" stop-color="#b1ff00"/>
    </linearGradient>
  </defs>
  <path class="st21" d="M79.45,128.32l42.43,147.69,12.37,4.64-16.24,10.05-72.69,4.64-19.97,108.26,280.8,31.71c42.9,4.84,86.21,4.83,129.11-.05l265.02-30.11-9.28-122.17-95.88,1.55,17.01-25.52,46.47-142.28-239.01-27.45-30.34-64.31-57.82,11.44-26.29,49.34-225.69,42.57Z"/>
  <path class="st1" d="M62.11,115.14l42.43,147.69,12.37,4.64-16.24,10.05-72.69,4.64-19.97,108.26,280.8,31.71c42.9,4.84,86.21,4.83,129.11-.05l265.02-30.11-9.28-122.17-95.88,1.55,17.01-25.52,46.47-142.28-239.01-27.45-30.34-64.31-57.82,11.44-26.29,49.34L62.11,115.14Z"/>
  <g>
    <g>
      <path class="st0" d="M18.61,368.19c5.7-30.26,11.39-60.52,17.09-90.78,6.17,1.16,12.34,2.29,18.51,3.38.19.02.37.05.56.08,3.44.61,6.74,2.73,10.12,6.48,3.12,3.47,5.85,7.61,8.1,12.31,2.27,4.73,3.81,10.04,4.57,15.8.79,5.98.28,11.43-1.54,16.19-2.28,6.43-7.02,11.85-14.13,15.95-5.63,3.25-11.15,5.31-16.43,6.13-1.09,6.24-2.18,12.48-3.27,18.73-7.87-1.37-15.73-2.8-23.59-4.28ZM49.83,328.87c1.91-1.33,3.25-3.17,4.09-5.63.97-2.79,1.12-5.75.49-9.05-.32-1.65-.71-3.11-1.19-4.36-1.13,6.34-2.26,12.69-3.4,19.03Z"/>
      <path class="st22" d="M54.08,284.82c2.48.44,5.06,2.17,7.78,5.19,2.87,3.2,5.35,6.98,7.44,11.35,2.09,4.37,3.48,9.23,4.18,14.58.7,5.36.25,10.12-1.35,14.29-2.02,5.66-6.15,10.32-12.44,13.95-6.29,3.63-12.26,5.6-17.86,5.92-1.04,5.9-2.09,11.79-3.13,17.69-5.05-.89-10.1-1.81-15.15-2.75,5.14-27.65,10.27-55.3,15.41-82.95,4.89.91,9.78,1.79,14.67,2.66.15.02.3.04.45.07M45.46,334.44c1.65.29,3.72-.34,6.22-1.9,2.93-1.83,4.99-4.5,6.18-7.99,1.18-3.41,1.37-7.09.61-11.04-.77-3.95-1.97-7.01-3.61-9.18-1.05-1.39-2.03-2.17-2.95-2.33-.52-.09-1.02.01-1.5.31-1.92,10.63-3.84,21.26-5.77,31.9.26.11.54.19.83.24M55.47,276.94c-.22-.04-.43-.07-.65-.1-4.8-.85-9.6-1.72-14.4-2.61-2.65-.49-5.3-.99-7.95-1.5-.5,2.62-1,5.24-1.5,7.86-5.27,27.63-10.54,55.25-15.81,82.88-.5,2.62-1,5.24-1.5,7.86,2.81.54,5.61,1.06,8.42,1.59,5.07.94,10.14,1.86,15.22,2.76,2.81.5,5.62.99,8.43,1.47.45-2.63.9-5.26,1.36-7.88.7-4.04,1.39-8.08,2.09-12.13,4.88-1.12,9.89-3.15,14.94-6.08,7.91-4.58,13.22-10.68,15.84-18.06,2.02-5.35,2.57-11.41,1.69-18-.83-6.18-2.5-11.9-4.96-17-2.43-5.05-5.38-9.52-8.76-13.28-4.02-4.46-8.07-7-12.45-7.77t0,0Z"/>
    </g>
    <g>
      <path class="st3" d="M66.08,376.71c4.86-30.28,9.72-60.56,14.58-90.84,3.9.63,7.79,1.24,11.69,1.83.34-.02.72-.02,1.14-.02.68,0,1.48.05,2.44.14.71.07,1.35.12,1.92.13.04,0,.08,0,.12,0,.35.02.71.06,1.07.11,3.36.5,6.63,2.4,10.06,5.82,3.29,3.28,6.21,7.31,8.68,11.97,2.48,4.68,4.23,9.94,5.19,15.64,1,5.93.66,11.43-1.05,16.32-1.78,5.24-5.35,9.96-10.67,14.01,1.62,3.08,4.22,6.48,7.78,10.11,4.58,4.68,6.63,5.79,7.23,6.04,5.09-.65,10.18-1.32,15.25-2.01-4.12,3.08-8.27,6.15-12.44,9.21-.41.3-1.23.94-2.82,2.27-1.34,1.12-2.56,2.15-3.67,3.1-.97.83-1.46,1.24-1.72,1.46-1.51,1.5-3.61,2.15-5.95,1.84-2.02-.27-4.24-1.27-6.78-3.07-3.82-2.71-7.54-6.43-11.06-11.05-1.91-2.52-3.47-4.88-4.71-7.13-.87,5.92-1.74,11.83-2.6,17.75-7.9-1.16-15.79-2.37-23.67-3.64ZM96.54,334.96c1.44-1.27,2.45-2.88,3.06-4.9.87-2.65.97-5.36.34-8.37-.27-1.27-.58-2.44-.94-3.49-.82,5.59-1.64,11.18-2.46,16.77Z"/>
      <path class="st22" d="M98.44,292.03c2.43.36,5.01,1.92,7.76,4.67,3.01,3.01,5.66,6.67,7.94,10.99,2.28,4.32,3.87,9.13,4.75,14.43.88,5.31.59,10.1-.92,14.39-1.81,5.31-5.76,9.97-11.87,13.93,1.54,4.3,4.8,9.05,9.85,14.21,4.54,4.65,7.85,7.1,9.87,7.35.22.03.43.03.62,0-.67.49-1.68,1.3-3.03,2.43-1.36,1.13-2.6,2.17-3.72,3.13-1.12.96-1.73,1.47-1.83,1.54-.59.66-1.41.92-2.44.78-1.27-.17-2.86-.93-4.78-2.29-3.49-2.47-6.88-5.86-10.16-10.17-3.28-4.31-5.48-8.18-6.61-11.62-1.71.49-3.34.78-4.91.87-.95,6.36-1.9,12.73-2.85,19.09-5.07-.76-10.14-1.53-15.2-2.33,4.37-27.66,8.74-55.32,13.11-82.98,2.72.43,5.43.85,8.15,1.27.34-.03.77-.04,1.31-.04.54,0,1.22.04,2.04.12.82.08,1.56.13,2.22.15.23.01.46.04.69.07M91.4,341.21c1.92.29,4.19-.5,6.81-2.37,2.61-1.87,4.4-4.41,5.37-7.63,1.05-3.2,1.18-6.64.4-10.31-.78-3.67-1.93-6.61-3.45-8.84-1.22-1.79-2.39-2.77-3.53-2.93-.28-.04-.55-.03-.82.02-1.59,10.69-3.19,21.37-4.78,32.06M99.62,284.11c-.48-.07-.96-.12-1.44-.15-.04,0-.08,0-.12,0-.04,0-.08,0-.12,0-.47-.01-1-.05-1.6-.11-1.12-.11-2.05-.16-2.86-.17-.32,0-.63,0-.92.01-2.43-.37-4.86-.75-7.29-1.14-2.66-.42-5.32-.85-7.98-1.28-.43,2.63-.86,5.26-1.29,7.9-4.5,27.64-9,55.28-13.51,82.91-.43,2.63-.86,5.26-1.29,7.9,2.82.46,5.63.91,8.45,1.36,5.09.8,10.18,1.59,15.27,2.34,2.82.42,5.64.83,8.46,1.24.38-2.64.76-5.28,1.14-7.92.15-1.07.31-2.14.46-3.21,3.36,4.16,6.92,7.57,10.58,10.17,3.18,2.26,5.98,3.48,8.78,3.85,3.62.48,7.02-.57,9.44-2.88.32-.27.82-.69,1.64-1.39,1.08-.93,2.3-1.96,3.63-3.07,1.59-1.33,2.31-1.89,2.61-2.1,8.33-6.12,16.58-12.3,24.74-18.54-9.73,1.42-19.49,2.75-29.28,4-.87-.63-2.49-1.95-5.08-4.59-2.47-2.52-4.23-4.7-5.48-6.52,4.47-4.02,7.56-8.59,9.26-13.63,1.9-5.52,2.28-11.64,1.16-18.21-1.05-6.13-2.95-11.8-5.63-16.85-2.67-5.02-5.83-9.38-9.42-12.95-4.06-4.05-8.09-6.33-12.34-6.97t0,0Z"/>
    </g>
    <g>
      <path class="st8" d="M150.12,389.88c-1.64-.18-3.25-.49-4.76-.92-3.3-.93-6.55-2.73-9.64-5.35-3.08-2.61-5.6-6-7.46-10.07-1.82-3.96-3.04-8.99-3.75-15.37-.68-6.17-.58-13.33.28-21.29.66-5.77,1.68-10.99,3.01-15.54,1.36-4.66,3-8.61,4.86-11.73,1.87-3.14,4.02-5.88,6.4-8.15,2.42-2.31,4.9-4.08,7.38-5.28,2.34-1.13,4.85-1.93,7.46-2.38.88-.28,1.79-.48,2.73-.57.05,0,.09,0,.14-.01.05,0,.09,0,.14,0,1.12-.04,2.26-.04,3.39,0,1.51-.03,3.06.04,4.61.21,1.19.13,2.41.32,3.62.57,1.08.23,2.1.59,3.05,1.08,2.56.83,4.97,1.94,7.17,3.32,2.38,1.49,4.69,3.61,6.88,6.28,2.18,2.66,3.99,5.81,5.38,9.35,1.36,3.46,2.35,7.75,2.97,12.74.6,4.89.73,10.39.38,16.35-.55,8.1-1.7,15.25-3.44,21.26-1.81,6.25-3.92,11.03-6.48,14.62-2.62,3.68-5.74,6.54-9.28,8.48-3.53,1.94-7.07,3.06-10.52,3.35-1.88.15-3.82.13-5.76-.08-1.27-.14-2.57-.35-3.87-.64-1.68.04-3.32-.02-4.88-.2ZM148.16,339.66c-.26,2.22-.44,4.52-.55,6.84-.11,2.28-.03,4.88.24,7.74.25,2.7.77,5.12,1.53,7.17.68,1.82,1.71,3.38,3.16,4.76,1.21,1.15,2.7,1.81,4.53,2.01,1.02.11,1.94-.02,2.82-.4,1.05-.46,1.89-1.04,2.58-1.78.79-.85,1.58-2.09,2.33-3.67.87-1.81,1.56-3.44,2.05-4.82.49-1.37.97-3.16,1.43-5.34.48-2.28.83-4.02,1.03-5.19.19-1.12.38-2.57.56-4.31.01-.11.02-.22.03-.32.03-.1.06-.21.09-.31.05-.2.1-.35.12-.47.3-2.13.5-4.24.59-6.28.09-2.04.07-4.16-.05-6.3-.12-1.99-.43-3.88-.93-5.6-.5-1.74-1.13-3.33-1.86-4.72-.57-1.07-1.32-1.93-2.3-2.62-.93-.65-2-1.04-3.28-1.18-1.55-.17-2.92-.07-4.08.29-1.04.33-1.91.88-2.66,1.68-1.02,1.09-1.9,2.3-2.64,3.59-.72,1.27-1.38,3-1.95,5.16-.63,2.37-1.13,4.56-1.48,6.52-.36,2.05-.8,4.56-1.31,7.54Z"/>
      <path class="st22" d="M164.47,297.38c1.07.12,2.16.29,3.26.51.8.17,1.56.45,2.25.85,2.39.74,4.59,1.74,6.6,3.01,2.01,1.26,3.97,3.07,5.89,5.41,1.92,2.34,3.49,5.1,4.72,8.26,1.23,3.16,2.13,7.09,2.7,11.78.57,4.69.67,9.9.32,15.63-.55,7.83-1.66,14.64-3.34,20.42-1.68,5.78-3.67,10.27-5.95,13.46-2.28,3.2-4.93,5.63-7.94,7.28-3.01,1.65-5.94,2.59-8.78,2.83-1.6.13-3.24.11-4.91-.07-1.28-.14-2.58-.37-3.9-.69-1.68.07-3.29.02-4.82-.15-1.41-.16-2.76-.42-4.04-.78-2.69-.76-5.35-2.25-7.99-4.48-2.64-2.23-4.77-5.12-6.4-8.66-1.63-3.54-2.78-8.28-3.45-14.19-.67-5.92-.58-12.74.24-20.47.62-5.55,1.57-10.51,2.84-14.87,1.27-4.37,2.75-7.97,4.44-10.82,1.69-2.85,3.59-5.28,5.7-7.31,2.11-2.02,4.22-3.54,6.32-4.56,2.1-1.01,4.33-1.71,6.68-2.09.69-.25,1.41-.41,2.16-.49,1.07-.04,2.15-.04,3.21,0,1.37-.03,2.77.03,4.19.19M156.64,372.15c1.78.19,3.46-.05,5.04-.74,1.57-.69,2.89-1.6,3.96-2.76,1.06-1.15,2.06-2.69,2.98-4.63.92-1.94,1.66-3.67,2.2-5.2.54-1.53,1.06-3.47,1.55-5.82.49-2.35.84-4.12,1.05-5.32.2-1.2.4-2.72.59-4.58.13-.47.21-.79.22-.95.31-2.24.51-4.46.61-6.65.1-2.19.07-4.42-.07-6.72-.14-2.29-.51-4.44-1.09-6.46-.59-2.01-1.31-3.84-2.18-5.47-.87-1.63-2.06-2.98-3.56-4.04-1.51-1.05-3.24-1.69-5.21-1.91-2.13-.23-4.06-.08-5.78.46-1.72.54-3.2,1.47-4.43,2.79-1.24,1.32-2.3,2.77-3.19,4.33-.89,1.57-1.67,3.59-2.35,6.08-.67,2.49-1.19,4.77-1.57,6.84-.37,2.08-.82,4.63-1.35,7.66-.28,2.33-.48,4.73-.6,7.2-.12,2.47-.05,5.23.23,8.28.28,3.05.86,5.77,1.74,8.15.88,2.38,2.26,4.48,4.17,6.28,1.9,1.8,4.25,2.86,7.06,3.17M165.34,289.43c-1.69-.19-3.39-.27-5.03-.24-1.19-.04-2.38-.03-3.56.01-.09,0-.18,0-.27.01-.09,0-.18.02-.27.03-1.12.12-2.22.34-3.28.66-2.88.53-5.65,1.42-8.25,2.67-2.87,1.38-5.7,3.4-8.43,6-2.64,2.52-5.03,5.55-7.1,9-2.07,3.45-3.8,7.59-5.29,12.64-1.41,4.76-2.48,10.2-3.18,16.16-.92,8.28-1.04,15.72-.34,22.16.73,6.79,2.06,12.21,4.04,16.55,2.1,4.61,4.97,8.48,8.52,11.48,3.57,3.03,7.37,5.12,11.29,6.22,1.76.49,3.6.85,5.49,1.06,1.59.18,3.25.26,4.94.23,1.28.27,2.56.47,3.83.61,2.23.24,4.45.27,6.61.09,4.08-.34,8.21-1.64,12.28-3.88,4.09-2.25,7.66-5.51,10.62-9.69,2.8-3.96,5.09-9.12,7-15.79,1.8-6.27,2.98-13.69,3.52-22.03,0-.01,0-.02,0-.03,0-.01,0-.02,0-.03.36-6.2.2-11.94-.44-17.06-.68-5.4-1.74-9.88-3.24-13.71-1.55-3.94-3.58-7.45-6.03-10.43-2.48-3.02-5.12-5.42-7.87-7.15-2.4-1.5-5.01-2.73-7.78-3.65-1.18-.58-2.43-1.01-3.73-1.28-.01,0-.02,0-.03,0-.01,0-.02,0-.03,0-1.34-.27-2.68-.48-3.98-.62h0ZM152.27,340.24c.5-2.93.92-5.4,1.27-7.42.32-1.85.79-3.93,1.39-6.19.6-2.28,1.18-3.56,1.56-4.23.58-1.02,1.27-1.98,2.08-2.84.28-.3.53-.46.89-.57.61-.19,1.41-.23,2.39-.13.73.08,1.1.28,1.34.45.45.31.77.68,1.04,1.2.6,1.14,1.12,2.47,1.55,3.95.41,1.44.68,3.04.77,4.74.12,2.01.13,3.99.04,5.89-.09,1.85-.27,3.77-.54,5.71-.01.05-.03.11-.05.17-.06.21-.12.42-.18.63-.02.22-.05.43-.07.65-.18,1.65-.36,3.02-.54,4.06-.2,1.1-.54,2.8-1.02,5.04-.43,2.01-.87,3.64-1.3,4.85-.45,1.26-1.09,2.76-1.91,4.45-.78,1.61-1.39,2.38-1.68,2.7-.29.32-.69.58-1.2.8-.13.06-.27.1-.59.07-1.11-.12-1.63-.48-2.02-.85-.99-.94-1.7-2-2.16-3.24-.65-1.74-1.09-3.82-1.32-6.19-.26-2.68-.34-5.1-.24-7.2.1-2.2.27-4.38.5-6.48h0Z"/>
    </g>
    <g>
      <path class="st7" d="M188.3,392.02c2.78-30.75,5.55-61.49,8.33-92.24,7.69.69,15.38,1.34,23.08,1.93,3.75.29,7.46,2.6,11.4,7.06,3.39,3.85,6.48,8.58,9.2,14.07,2.71,5.49,4.81,11.79,6.24,18.74,1.45,7.08,1.7,13.78.71,19.92-.87,5.21-2.83,10.07-5.86,14.45-3,4.34-6.51,7.84-10.43,10.39-3.77,2.45-7.61,4.36-11.41,5.68-4.06,1.4-7.77,1.97-11.03,1.72-6.74-.53-13.48-1.1-20.22-1.71ZM214.8,367.35c1.67-.95,3.38-2.57,5.08-4.81,1.72-2.3,2.83-4.73,3.37-7.39.71-3.8.54-8.17-.51-12.91-1.08-4.87-2.54-8.98-4.36-12.22-.23-.4-.44-.77-.65-1.12-.02.25-2.94,38.45-2.94,38.45Z"/>
      <path class="st22" d="M219.4,305.7c2.61.2,5.48,2.1,8.65,5.69,3.16,3.59,6.02,7.98,8.58,13.18,2.56,5.2,4.52,11.12,5.87,17.77,1.35,6.65,1.57,12.83.64,18.53-.79,4.65-2.54,8.95-5.25,12.87-2.72,3.92-5.83,7.03-9.33,9.3-3.5,2.28-7,4.02-10.49,5.22-3.49,1.2-6.57,1.7-9.23,1.49-1.2-.09-2.4-.19-3.6-.29-4.11-.33-8.23-.68-12.34-1.04,2.47-28.1,4.94-56.19,7.41-84.29,4.94.43,9.87.85,14.81,1.24.81.06,2.24.18,4.29.33M212.15,372.25c.52.04,1.16-.04,1.92-.24,3.23-.89,6.3-3.26,9.21-7.11,2.07-2.77,3.42-5.76,4.06-8.96.81-4.4.62-9.24-.56-14.52-1.18-5.27-2.78-9.71-4.8-13.31-2.02-3.6-3.9-5.83-5.66-6.7-.26-.14-.5-.22-.71-.24-.65-.05-1.11.46-1.38,1.54-.14.72-.36,2.94-.65,6.65-1.08,13.72-2.15,27.19-3.19,40.42-.12,1.55.46,2.37,1.74,2.47M220.01,297.72c-1.42-.11-2.84-.22-4.27-.33-4.92-.39-9.83-.8-14.74-1.23-2.68-.24-5.35-.48-8.03-.73-.25,2.66-.49,5.31-.74,7.97-2.6,28.08-5.21,56.17-7.81,84.25-.25,2.66-.49,5.31-.74,7.97,2.83.26,5.67.52,8.5.77,4.13.36,8.26.71,12.39,1.05,1.21.1,2.41.19,3.62.29,3.93.31,8.14-.32,12.84-1.94,4.14-1.43,8.3-3.5,12.35-6.14,4.37-2.85,8.25-6.71,11.53-11.48,3.34-4.85,5.51-10.24,6.45-15.99,1.06-6.65.78-13.83-.78-21.36-1.51-7.29-3.74-13.92-6.61-19.71-2.89-5.81-6.19-10.84-9.82-14.95-4.68-5.3-9.28-8.05-14.15-8.42h0Z"/>
    </g>
    <g>
      <path class="st4" d="M269.99,398.5c-3.38-.15-6.47-.8-9.18-1.91-3-1.24-5.5-2.9-7.45-4.95-1.84-1.92-3.42-4.3-4.71-7.05-1.23-2.62-2.11-5.19-2.64-7.63-.5-2.32-.87-5.01-1.1-7.99-.22-2.88-.34-5.35-.35-7.34-.01-1.97.03-4.18.13-6.56.12-2.9.11-3.91.09-4.25,0-.05,0-.1,0-.15-.11-8.22.7-22.3,2.45-43.04.11-1.88.22-3.75.34-5.63,7.83.53,15.66,1.01,23.49,1.43-.08,1.34-.16,2.67-.23,4.01-.79,13.71-1.61,29.52-2.42,46.99-.27,5.89.14,10.93,1.23,15,.71,2.65,1.58,3.5,1.81,3.51.07,0,.15,0,.22,0,1.02,0,2.02-.18,2.87-2.17.79-1.84,1.89-5.79,2.63-14.19.58-6.06,1.28-20.1,2.09-41.76.15-3.68.3-7.36.45-11.05,5.32.22,10.64.41,15.96.58.85,0,1.7.02,2.56.02.59.02,3.57.3,4.06,4.1.09.7.14,1.62.15,2.83.01,1.07.02,2.27.02,3.62,0,1.37-.02,2.98-.07,4.92-.11,3.98-.22,7.97-.33,11.95-.06,2.36-.15,4.57-.24,6.57-.09,1.95-.18,4.17-.24,6.59-.1,3.56-.19,7.12-.29,10.68-.03,1.13-.14,2.94-.35,5.53-.21,2.64-.5,4.91-.87,6.75-.36,1.78-.86,3.96-1.48,6.48-.69,2.79-1.53,5.21-2.51,7.2-.94,1.9-2.14,3.96-3.57,6.1-1.6,2.4-3.43,4.36-5.44,5.84-1.96,1.44-4.33,2.65-7.04,3.59-2.79.96-5.86,1.43-9.12,1.39-.32,0-.62-.02-.91-.03Z"/>
      <path class="st22" d="M251.35,306.26c5.14.34,10.29.65,15.43.94-.84,13.9-1.68,29.57-2.53,47.03-.31,6.3.13,11.7,1.32,16.17,1.13,4.24,3.03,6.42,5.7,6.54.15,0,.3,0,.45,0,3.15-.02,5.39-1.57,6.7-4.64,1.31-3.06,2.27-8.19,2.89-15.38.57-6.13,1.24-20.12,2-41.96.09-2.35.18-4.69.27-7.04,4.82.19,9.64.35,14.46.5.02-.04.04-.06.06-.05.06,0,.12.2.17.61.07.53.1,1.32.11,2.37,0,1.05.01,2.25.02,3.58,0,1.34-.03,2.94-.08,4.79-.06,1.86-.11,3.74-.17,5.64-.06,1.9-.12,4-.19,6.31-.07,2.31-.15,4.47-.25,6.49-.1,2.02-.19,4.25-.26,6.67-.07,2.43-.14,4.57-.19,6.43-.05,1.78-.09,3.2-.13,4.25-.03,1.05-.15,2.83-.35,5.33-.2,2.5-.48,4.6-.82,6.29-.35,1.69-.83,3.8-1.46,6.33-.63,2.53-1.38,4.68-2.25,6.43-.87,1.75-1.97,3.64-3.33,5.66-1.35,2.02-2.84,3.63-4.47,4.82-1.63,1.2-3.6,2.2-5.91,2.99-2.31.8-4.84,1.18-7.6,1.14-.26,0-.52-.01-.78-.02-2.87-.13-5.42-.65-7.67-1.58-2.45-1.01-4.44-2.33-5.99-3.95-1.55-1.62-2.88-3.62-3.99-5.99-1.11-2.37-1.9-4.64-2.38-6.82-.48-2.17-.82-4.67-1.05-7.48-.22-2.81-.34-5.17-.36-7.07-.02-1.9.02-4.03.11-6.38.09-2.35.12-3.88.08-4.62-.13-8.03.66-22.25,2.33-42.67.03-.57.07-1.13.1-1.7M243.78,297.73c-.17,2.68-.34,5.37-.5,8.05-.03.53-.07,1.07-.1,1.6-1.8,20.81-2.65,34.98-2.56,43.32,0,.05,0,.1,0,.15,0,.05,0,.1,0,.15,0,.08.03.84-.1,3.89-.11,2.44-.16,4.71-.15,6.74,0,2.1.12,4.59.35,7.6.23,3.15.62,6.01,1.16,8.5.58,2.71,1.55,5.56,2.9,8.45,1.46,3.14,3.28,5.87,5.43,8.12,2.34,2.46,5.34,4.47,8.9,5.94,3.19,1.32,6.79,2.08,10.7,2.25.33.01.67.02,1,.03,3.83.05,7.42-.5,10.69-1.63,3.12-1.08,5.87-2.49,8.18-4.19,2.39-1.76,4.54-4.06,6.4-6.85,1.52-2.29,2.8-4.49,3.81-6.54,1.11-2.27,2.02-4.88,2.78-7.97.63-2.58,1.13-4.81,1.5-6.63.41-2.03.71-4.39.92-7.23.2-2.66.31-4.53.34-5.72.04-1.42.07-2.83.11-4.25.05-2.14.11-4.29.16-6.43.06-2.39.13-4.59.22-6.51.09-2.03.17-4.27.23-6.65.05-2.1.1-4.21.16-6.31.05-1.88.09-3.76.14-5.64.05-1.98.07-3.63.06-5.04,0-1.36-.02-2.57-.03-3.63-.02-1.4-.08-2.43-.19-3.28-.78-5.87-5.36-7.54-7.95-7.62-.33,0-.65,0-.97.03-4.5-.14-8.99-.29-13.49-.47-2.68-.1-5.36-.21-8.04-.33-.12,2.66-.23,5.33-.35,7.99-.1,2.34-.2,4.69-.3,7.03-.86,21.61-1.58,35.57-2.17,41.53,0,0,0,.02,0,.03,0,0,0,.02,0,.03-.15,1.63-.31,3.08-.47,4.36-.09-1.86-.09-3.85,0-5.96.77-17.46,1.54-33.26,2.3-46.95.15-2.67.3-5.35.45-8.02-2.69-.14-5.38-.28-8.07-.44-5.12-.29-10.24-.6-15.36-.94-2.7-.18-5.4-.36-8.09-.55h0Z"/>
    </g>
    <g>
      <path class="st6" d="M313.67,398.91c.45-22.98.91-45.96,1.36-68.94-6.21-.12-12.41-.28-18.62-.47.24-7.9.48-15.79.72-23.69,20.68.82,41.37,1.26,62.07,1.32.05,7.71.09,15.43.14,23.14-6.42.04-12.83.04-19.25,0-.12,22.98-.24,45.97-.35,68.95-8.69-.04-17.38-.15-26.08-.32Z"/>
      <path class="st22" d="M301.06,309.97c18.03.67,36.08,1.05,54.13,1.15.02,5.06.04,10.12.06,15.17-6.4.02-12.8.01-19.2-.04-.17,22.98-.35,45.97-.52,68.95-5.84-.04-11.68-.12-17.52-.22.4-22.98.8-45.96,1.2-68.94-6.19-.11-12.39-.25-18.58-.42.15-5.22.29-10.44.44-15.65M293.24,301.66c-.09,2.69-.18,5.38-.27,8.07-.17,5.22-.34,10.43-.52,15.65-.09,2.67-.18,5.33-.26,8,2.73.09,5.47.17,8.2.25,3.49.1,6.98.19,10.46.26-.45,20.31-.9,40.62-1.35,60.94-.06,2.67-.12,5.33-.18,8,2.84.06,5.69.12,8.53.17,5.87.1,11.74.17,17.6.22,2.84.02,5.69.04,8.53.04,0-2.67.01-5.33.02-8,.06-20.32.11-40.63.17-60.95,3.7.01,7.39,0,11.09,0,2.73-.01,5.47-.03,8.2-.05-.02-2.67-.05-5.33-.07-8-.04-5.06-.09-10.12-.13-15.17-.02-2.64-.04-5.28-.07-7.93-2.66,0-5.32,0-7.98-.02-17.96-.09-35.92-.48-53.87-1.14-2.71-.1-5.41-.21-8.12-.32t0,0Z"/>
    </g>
    <g>
      <path class="st5" d="M354.73,398.77c0-30.71-.02-61.42-.03-92.13,7.63-.03,15.27-.1,22.9-.23.34,30.71.67,61.42.99,92.12-7.95.13-15.91.21-23.86.24Z"/>
      <path class="st22" d="M373.6,310.47c.24,28.04.48,56.08.71,84.13-5.11.07-10.22.12-15.33.15-.07-28.04-.15-56.08-.23-84.13,4.95-.03,9.9-.08,14.85-.15M381.58,302.33c-2.7.05-5.4.1-8.1.14-4.93.07-9.85.12-14.78.15-2.68.02-5.35.02-8.03.03,0,2.66,0,5.32-.02,7.98-.05,28.04-.11,56.08-.17,84.13,0,2.67-.01,5.35-.02,8.02,2.85,0,5.7-.01,8.55-.03,5.13-.03,10.27-.08,15.4-.15,2.83-.04,5.65-.09,8.48-.14-.03-2.65-.07-5.3-.1-7.95-.36-28.04-.73-56.08-1.11-84.12-.04-2.68-.07-5.36-.11-8.05t0,0Z"/>
    </g>
    <g>
      <path class="st2" d="M395.35,398.54c-8.06-30.79-15.74-61.64-23.04-92.53,8.05-.11,16.1-.28,24.16-.51,4.35,16.93,8.82,33.84,13.4,50.74,3.46-17.18,6.8-34.36,10.02-51.56,8.06-.34,16.12-.73,24.17-1.19-5.44,31.35-11.27,62.67-17.5,93.96-10.4.45-20.8.81-31.2,1.08Z"/>
      <path class="st22" d="M439.21,307.76c-5.07,28.64-10.47,57.25-16.21,85.84-2.36.1-4.72.19-7.08.28-5.75.22-11.51.41-17.26.57-7.4-28.13-14.49-56.31-21.27-84.52,5.32-.09,10.63-.2,15.95-.34,5.52,21.59,11.22,43.16,17.12,64.7,4.46-21.9,8.73-43.81,12.81-65.74,5.31-.23,10.63-.49,15.94-.77M448.88,299.2c-3.37.2-6.73.39-10.1.57-5.29.28-10.57.54-15.86.77-2.14.09-4.27.18-6.41.27-.39,2.09-.79,4.18-1.19,6.27-1.98,10.37-3.99,20.74-6.06,31.11-2.74-10.19-5.44-20.39-8.09-30.59-.54-2.06-1.07-4.13-1.61-6.2-2.14.06-4.29.12-6.44.18-5.29.14-10.58.25-15.88.34-3.34.06-6.67.1-10.01.14.75,3.23,1.51,6.46,2.27,9.69,6.65,28.25,13.61,56.46,20.89,84.62.54,2.08,1.08,4.16,1.62,6.24,2.29-.05,4.57-.11,6.86-.18,5.78-.16,11.56-.35,17.34-.57,2.37-.09,4.74-.18,7.11-.28,2.26-.09,4.52-.19,6.79-.3.41-2.09.82-4.18,1.23-6.27,5.61-28.62,10.88-57.26,15.83-85.92.57-3.3,1.14-6.61,1.7-9.91t0,0Z"/>
    </g>
    <g>
      <path class="st15" d="M443.4,396.27c-1.53-30.67-3.07-61.34-4.61-92.01,7.62-.41,15.25-.86,22.87-1.37,1.87,30.65,3.72,61.31,5.57,91.96-7.94.53-15.88,1-23.83,1.42Z"/>
      <path class="st22" d="M457.87,307.15c1.64,27.99,3.27,55.99,4.89,83.99-5.1.33-10.21.63-15.31.91-1.47-28-2.94-56.01-4.41-84.01,4.95-.27,9.89-.57,14.83-.89M465.44,298.63c-2.69.19-5.39.37-8.08.54-4.92.32-9.84.61-14.76.88-2.67.15-5.35.29-8.02.43.13,2.66.25,5.31.38,7.97,1.34,28.01,2.68,56.02,4.01,84.03.13,2.67.25,5.34.38,8.01,2.85-.14,5.7-.3,8.54-.45,5.13-.28,10.25-.59,15.38-.92,2.82-.18,5.64-.37,8.46-.56-.17-2.65-.33-5.29-.5-7.94-1.75-27.99-3.52-55.98-5.29-83.96-.17-2.68-.34-5.35-.51-8.03h0Z"/>
    </g>
    <g>
      <path class="st14" d="M468.07,395.28c-2.06-30.8-4.12-61.6-6.18-92.41,7.7-.52,15.4-1.08,23.09-1.7,3.75-.3,7.78,1.4,12.36,5.19,3.95,3.27,7.74,7.46,11.29,12.46,3.54,4.99,6.6,10.89,9.1,17.53,2.54,6.76,3.84,13.34,3.82,19.57-.05,5.28-1.23,10.39-3.53,15.19-2.28,4.75-5.21,8.76-8.69,11.89-3.34,3.01-6.84,5.5-10.39,7.39-3.79,2.01-7.37,3.16-10.63,3.42-6.74.53-13.49,1.02-20.23,1.47ZM490.39,366.78c1.5-1.2,2.94-3.06,4.27-5.55,1.34-2.55,2.06-5.11,2.18-7.83.11-3.87-.75-8.15-2.52-12.67-1.83-4.64-3.92-8.47-6.21-11.39-.28-.36-.56-.7-.82-1,.02.25,3.1,38.44,3.1,38.44Z"/>
      <path class="st22" d="M485.3,305.16c2.61-.21,5.75,1.22,9.43,4.27,3.68,3.06,7.19,6.95,10.54,11.68,3.34,4.73,6.2,10.27,8.58,16.63,2.37,6.36,3.56,12.42,3.52,18.2-.05,4.72-1.11,9.24-3.18,13.53-2.08,4.3-4.67,7.85-7.77,10.65-3.1,2.8-6.29,5.06-9.55,6.79-3.26,1.73-6.23,2.7-8.88,2.91-1.2.09-2.4.19-3.6.28-4.11.31-8.23.61-12.35.9-1.95-28.14-3.9-56.27-5.85-84.41,4.94-.34,9.88-.71,14.82-1.09.82-.06,2.25-.18,4.29-.34M488.54,372.03c.52-.04,1.14-.22,1.86-.54,3.05-1.38,5.72-4.2,7.99-8.46,1.61-3.06,2.48-6.22,2.62-9.49.12-4.48-.83-9.23-2.82-14.26-1.99-5.03-4.26-9.16-6.82-12.4-2.56-3.24-4.77-5.15-6.64-5.73-.28-.1-.52-.14-.74-.12-.65.05-1.02.63-1.12,1.73-.03.73.11,2.96.4,6.67,1.07,13.72,2.13,27.19,3.17,40.42.12,1.55.82,2.27,2.11,2.17M484.66,297.19c-1.42.11-2.84.23-4.27.34-4.92.38-9.83.75-14.75,1.09-2.68.19-5.36.36-8.04.54.17,2.66.34,5.32.51,7.98,1.82,28.15,3.63,56.29,5.45,84.44.17,2.66.34,5.32.51,7.98,2.84-.18,5.68-.37,8.52-.57,4.13-.29,8.27-.59,12.4-.9,1.21-.09,2.41-.19,3.62-.28,3.93-.31,7.99-1.59,12.38-3.93,3.87-2.06,7.65-4.75,11.24-7.99,3.87-3.5,7.1-7.92,9.6-13.14,2.55-5.32,3.84-10.97,3.88-16.8,0-6.74-1.39-13.78-4.11-20.98-2.63-6.97-5.87-13.16-9.62-18.43-3.76-5.29-7.81-9.74-12.04-13.23-5.45-4.5-10.43-6.5-15.29-6.11h0Z"/>
    </g>
    <g>
      <path class="st11" d="M560.01,386.86c-2.31-6.65-4.61-13.31-6.89-19.97-4.13.48-8.25.95-12.38,1.4-.78,7.01-1.57,14.01-2.39,21.02-7.55.81-15.11,1.56-22.67,2.27,3.89-31.25,7.44-62.51,10.63-93.76,8.28-.87,16.56-1.81,24.83-2.8,10.08,29.76,20.5,59.44,31.26,89.04-7.46.98-14.92,1.92-22.39,2.81ZM546.06,346.21c-.76-2.25-1.52-4.51-2.27-6.77-.24,2.37-.49,4.74-.73,7.11,1-.11,2-.23,3.01-.34Z"/>
      <path class="st22" d="M548.34,299.38c9.16,27.19,18.61,54.32,28.35,81.38-4.57.59-9.14,1.16-13.71,1.71-2.32-6.65-4.63-13.3-6.91-19.96-6.38.76-12.76,1.48-19.14,2.16-.79,7-1.59,14.01-2.42,21.01-4.66.49-9.33.96-13.99,1.41,3.46-28.55,6.63-57.1,9.5-85.65,6.11-.66,12.22-1.35,18.33-2.07M538.39,351.09c4.4-.48,8.81-.98,13.21-1.49-3.36-9.87-6.69-19.76-9.97-29.65-1.04,10.38-2.12,20.76-3.24,31.14M553.92,290.65c-2.17.27-4.35.53-6.52.78-6.08.72-12.16,1.41-18.24,2.06-2.18.23-4.35.46-6.53.69-.22,2.16-.45,4.32-.68,6.48-3,28.54-6.29,57.08-9.88,85.61-.41,3.26-.82,6.52-1.24,9.78,3.48-.32,6.97-.64,10.45-.98,4.69-.45,9.37-.93,14.06-1.42,2.3-.24,4.59-.49,6.88-.73.25-2.15.49-4.31.74-6.46.55-4.85,1.09-9.71,1.62-14.56,1.86-.21,3.73-.42,5.59-.63,1.57,4.6,3.14,9.2,4.72,13.8.71,2.06,1.42,4.12,2.13,6.18,2.31-.27,4.61-.54,6.92-.82,4.59-.56,9.18-1.13,13.77-1.72,3.47-.45,6.94-.91,10.42-1.37-1.13-3.08-2.26-6.17-3.39-9.26-9.86-27.01-19.43-54.1-28.72-81.25-.7-2.05-1.4-4.11-2.1-6.16t0,0Z"/>
    </g>
    <g>
      <path class="st10" d="M577.58,384.56c-3.95-30.62-7.91-61.23-11.86-91.85,7.66-.99,15.32-2.03,22.98-3.13,3.73-.53,7.86.91,12.68,4.42,4.15,3.02,8.2,6.97,12.05,11.74,3.84,4.76,7.27,10.46,10.17,16.94,2.96,6.59,4.66,13.08,5.02,19.29.28,5.28-.59,10.44-2.6,15.38-1.99,4.88-4.67,9.06-7.96,12.41-3.15,3.21-6.5,5.91-9.93,8.02-3.66,2.25-7.17,3.61-10.42,4.07-6.71.94-13.42,1.85-20.13,2.72ZM598.14,354.73c1.43-1.29,2.75-3.24,3.93-5.8,1.19-2.62,1.74-5.23,1.7-7.95-.13-3.86-1.25-8.09-3.3-12.49-2.11-4.52-4.44-8.22-6.91-10.99-.31-.34-.6-.66-.88-.95.03.24,5.46,38.17,5.46,38.17Z"/>
      <path class="st22" d="M589.26,293.54c2.6-.37,5.82.86,9.69,3.68,3.87,2.82,7.62,6.49,11.25,11,3.63,4.52,6.83,9.87,9.6,16.07,2.76,6.2,4.32,12.18,4.64,17.95.24,4.72-.54,9.29-2.35,13.71-1.81,4.42-4.18,8.13-7.11,11.11-2.93,2.98-5.98,5.44-9.13,7.37-3.15,1.93-6.06,3.08-8.7,3.45-1.19.17-2.39.33-3.58.5-4.09.57-8.19,1.12-12.29,1.66-3.68-27.96-7.36-55.93-11.04-83.89,4.92-.65,9.84-1.32,14.75-2.01.81-.11,2.23-.31,4.26-.6M596.61,360.08c.52-.07,1.13-.29,1.83-.65,2.96-1.57,5.46-4.55,7.47-8.94,1.42-3.16,2.09-6.37,2.03-9.63-.16-4.48-1.4-9.16-3.7-14.05-2.3-4.89-4.82-8.88-7.58-11.95-2.76-3.07-5.08-4.85-6.99-5.31-.28-.08-.53-.11-.75-.08-.65.09-.98.69-1.02,1.8.02.73.29,2.94.81,6.63,1.92,13.63,3.8,27.01,5.65,40.15.22,1.54.96,2.22,2.24,2.04M588.13,285.62c-1.41.2-2.83.4-4.24.6-4.89.69-9.78,1.35-14.68,2-2.67.35-5.33.7-8,1.03l1.01,7.94c3.55,27.98,7.09,55.96,10.64,83.94.34,2.65.67,5.29,1.01,7.94,2.83-.36,5.65-.72,8.48-1.09,4.12-.54,8.23-1.1,12.34-1.67,1.2-.17,2.4-.33,3.6-.5,3.91-.55,7.89-2.08,12.14-4.69,3.74-2.29,7.36-5.21,10.75-8.67,3.66-3.73,6.62-8.35,8.8-13.71,2.22-5.47,3.17-11.19,2.85-17.01-.4-6.72-2.24-13.66-5.4-20.68-3.06-6.79-6.68-12.78-10.75-17.8-4.09-5.05-8.41-9.24-12.85-12.46-5.73-4.16-10.83-5.84-15.67-5.15h0Z"/>
    </g>
    <g>
      <path class="st17" d="M631.75,376.47c-4.88-30.4-9.76-60.8-14.63-91.2,14.07-2.26,28.11-4.69,42.13-7.31,1.41,7.55,2.82,15.11,4.23,22.66-6.62,1.23-13.24,2.43-19.87,3.58.4,2.32.81,4.63,1.21,6.95,7.64-1.33,15.27-2.72,22.9-4.15,1.43,7.59,2.86,15.18,4.29,22.77-7.74,1.46-15.48,2.86-23.23,4.21.89,5.27,1.78,10.54,2.67,15.81,7.35-1.28,14.69-2.61,22.02-3.98,1.42,7.55,2.83,15.11,4.25,22.66-15.29,2.87-30.61,5.53-45.96,7.99Z"/>
      <path class="st22" d="M655.98,282.64c.91,4.93,1.82,9.87,2.72,14.8-6.6,1.22-13.21,2.39-19.83,3.53.85,4.95,1.7,9.89,2.55,14.84,7.66-1.32,15.32-2.69,22.96-4.11.92,4.97,1.85,9.95,2.77,14.92-7.71,1.43-15.44,2.81-23.16,4.14,1.32,7.9,2.63,15.81,3.95,23.71,7.37-1.27,14.74-2.58,22.1-3.94.91,4.93,1.82,9.87,2.74,14.8-12.47,2.31-24.96,4.48-37.46,6.51-4.52-27.76-9.04-55.51-13.57-83.27,11.43-1.86,22.84-3.84,34.23-5.94M662.48,273.29c-2.65.5-5.3.99-7.95,1.48-11.34,2.09-22.7,4.06-34.07,5.91-2.66.43-5.32.86-7.97,1.28.42,2.63.83,5.27,1.25,7.9,4.39,27.78,8.78,55.56,13.17,83.34.42,2.63.83,5.27,1.25,7.9,2.82-.45,5.63-.9,8.45-1.36,12.56-2.05,25.1-4.23,37.63-6.54,2.81-.52,5.61-1.04,8.42-1.58-.5-2.62-.99-5.24-1.49-7.86-.94-4.93-1.87-9.86-2.81-14.79-.5-2.62-.99-5.24-1.49-7.86-2.76.52-5.51,1.04-8.27,1.55-4.55.84-9.11,1.67-13.67,2.47-.45-2.64-.9-5.28-1.36-7.92,5.02-.89,10.04-1.8,15.06-2.73,2.75-.51,5.49-1.03,8.23-1.55-.5-2.62-1-5.24-1.5-7.86-.95-4.97-1.9-9.94-2.84-14.91-.5-2.62-1-5.24-1.5-7.86-.98.19-1.96.37-2.94.56-.44-2.31-.87-4.62-1.31-6.93-.93-4.93-1.86-9.86-2.79-14.79-.5-2.62-.99-5.24-1.49-7.86t0,0Z"/>
    </g>
  </g>
  <g>
    <polygon class="st12" points="335.34 27.31 359.17 27.89 371.1 80.54 355.82 82.43 351.49 70.66 345.63 71.01 343.94 82.03 324.54 82.98 335.34 27.31"/>
    <path class="st22" d="M338.62,31.39l17.34.42,10.26,45.3-7.74.96-4.26-11.58-12.06.72-1.68,10.98-11.04.54,9.18-47.34M352.48,60.73l-6.54-21.12-2.58,20.58,9.12.54M332.05,23.23l-1.29,6.64-9.18,47.34-1.94,10.01,10.19-.5,11.04-.54,6.53-.32.99-6.46.6-3.95,1.98,5.38,2.19,5.96,6.3-.78,7.74-.96,8.77-1.09-1.95-8.62-10.26-45.3-1.38-6.08-6.23-.15-17.34-.42-6.76-.16h0Z"/>
  </g>
  <g>
    <g>
      <path class="st13" d="M75.89,120.21c25.23-7.06,50.67-13.28,76.3-18.64,5.55,1.11,11.08,2.26,16.58,3.44,6.25,22.81,12.34,45.65,18.27,68.53-5.51,6.22-10.93,12.48-16.24,18.78-9.89,2.14-19.75,4.42-29.58,6.84,1.54,14.98,3.14,29.96,4.79,44.93-12.07,2.94-24.09,6.1-36.05,9.47-11.25-44.47-22.6-88.92-34.07-133.34ZM130.84,164.17c4.62-1.26,9.25-2.49,13.89-3.69-1.51-8.29-3.02-16.58-4.53-24.88-.68-.61-1.37-1.23-2.06-1.84-4.59,1.7-9.16,3.42-13.72,5.17,2.15,8.41,4.29,16.82,6.42,25.24Z"/>
      <path class="st22" d="M152.01,105.69c4.32.87,8.64,1.76,12.93,2.67,5.94,21.39,11.74,42.8,17.4,64.25-4.71,5.34-9.34,10.72-13.9,16.12-10.64,2.32-21.25,4.8-31.82,7.44,1.59,14.97,3.24,29.93,4.93,44.89-9.58,2.37-19.12,4.87-28.63,7.51-10.43-41.93-20.96-83.84-31.59-125.72,23.38-6.45,46.95-12.17,70.68-17.16M127.59,169.21c7.35-2.03,14.72-3.99,22.11-5.88-1.77-9.92-3.53-19.83-5.3-29.75-1.68-1.52-3.36-3.04-5.05-4.55-6.76,2.48-13.48,5.02-20.18,7.62,2.82,10.85,5.63,21.7,8.42,32.56M152.38,97.44c-.71.15-1.42.3-2.13.45-23.89,5.02-47.62,10.79-71.16,17.28-2.89.8-5.78,1.61-8.67,2.43.66,2.5,1.31,5.01,1.97,7.51,10.96,41.8,21.82,83.62,32.58,125.47.68,2.66,1.37,5.31,2.05,7.97,2.68-.77,5.36-1.52,8.05-2.27,9.44-2.62,18.91-5.1,28.41-7.45,2.31-.57,4.63-1.14,6.94-1.69-.25-2.33-.5-4.66-.74-7-1.34-12.65-2.64-25.31-3.9-37.98,8.11-1.97,16.25-3.84,24.41-5.62.98-.21,1.97-.43,2.95-.64.63-.75,1.27-1.5,1.9-2.25,4.56-5.37,9.19-10.72,13.9-16.03.93-1.05,1.86-2.09,2.79-3.14-.33-1.3-.66-2.6-1-3.91-5.49-21.49-11.12-42.95-16.9-64.38-.41-1.51-.81-3.01-1.22-4.52-1.72-.38-3.44-.75-5.16-1.12-4.32-.92-8.65-1.82-13-2.7-.69-.14-1.39-.28-2.09-.42t0,0ZM129.64,141.23c2.19-.83,4.38-1.66,6.57-2.47,1.17,6.3,2.34,12.59,3.52,18.89-1.87.49-3.74.99-5.6,1.49-1.49-5.97-2.98-11.93-4.48-17.9h0Z"/>
    </g>
    <g>
      <path class="st16" d="M197.93,235.25c-6.12-45.17-12.19-90.34-18.22-135.52,36.5-5.2,73.19-8.68,109.94-10.44-3.36,47.15-6.04,94.31-8.05,141.46-27.85.37-55.77,1.86-83.66,4.5ZM248.05,206.9c-.56-21.77-1.04-43.55-1.42-65.33-8.43,1.24-16.84,2.57-25.23,4,3.1,20.95,6.16,41.9,9.18,62.86,5.82-.56,11.65-1.07,17.48-1.53Z"/>
      <path class="st22" d="M284.76,93.55c-2.95,44.42-5.31,88.85-7.07,133.27-25.38.43-50.81,1.79-76.23,4.1-5.6-42.61-11.16-85.23-16.68-127.85,33.21-4.6,66.56-7.77,99.98-9.51M250.97,136.9c-11.54,1.64-23.04,3.46-34.51,5.46,3.58,23.47,7.1,46.95,10.56,70.44,8.42-.84,16.84-1.57,25.26-2.21-.55-24.56-.99-49.12-1.31-73.69M294.57,85.07c-3.41.15-6.81.31-10.22.49-33.64,1.75-67.23,4.94-100.66,9.58-3.03.42-6.06.85-9.08,1.29.36,2.62.72,5.24,1.08,7.86,5.85,42.58,11.74,85.15,17.68,127.72.35,2.53.71,5.07,1.06,7.6,2.58-.25,5.17-.5,7.75-.73,25.23-2.29,50.46-3.64,75.65-4.07,2.55-.04,5.09-.08,7.64-.1.12-2.52.23-5.05.35-7.57,2.1-44.4,4.8-88.81,8.09-133.21.22-2.95.44-5.91.67-8.86h0ZM226.31,148.8c5.33-.89,10.67-1.73,16.01-2.54.42,19,.91,37.99,1.46,56.98-3.21.27-6.42.55-9.63.84-2.58-18.43-5.2-36.86-7.85-55.28h0Z"/>
    </g>
    <g>
      <path class="st9" d="M314.74,229.05c-4.46-1.07-8.93-2.12-13.42-3.13-3.14-45.35-6.44-90.69-9.9-136.02,12.45.27,24.89.73,37.29,1.4,11.48,18.07,22.44,36.31,32.88,54.69-.62-19.37-1.28-38.75-2-58.12,16.85-.35,33.72-.34,50.6.04-1.04,46.45-2.26,92.9-3.65,139.33-10.42-.33-20.84-.49-31.25-.51-10.47-23.87-21.69-47.58-33.68-71.1,2.87,24.31,5.55,48.63,8.05,72.96-11.64-.04-23.29.11-34.93.46Z"/>
      <path class="st22" d="M405.52,91.81c-.82,43.78-1.8,87.54-2.93,131.31-8.21-.22-16.42-.35-24.62-.38-13.3-30.42-27.85-60.59-43.61-90.42,3.9,30.74,7.5,61.5,10.81,92.28-10,0-20,.15-30,.45-3.32-.8-6.65-1.58-9.99-2.35-2.81-42.9-5.76-85.79-8.85-128.68,9.88.26,19.75.64,29.6,1.14,14.32,22.48,27.82,45.22,40.51,68.19-.63-23.85-1.34-47.71-2.11-71.56,13.72-.23,27.46-.22,41.2.03M414.91,84.01c-3.11-.08-6.21-.15-9.32-.21-13.83-.25-27.66-.26-41.48-.03-3.09.05-6.18.12-9.27.19.11,2.68.22,5.36.33,8.03.49,12.22.97,24.43,1.42,36.65-7.31-12.54-14.86-25-22.65-37.39-.8-1.28-1.61-2.55-2.42-3.83-1.67-.09-3.34-.18-5.02-.27-9.92-.51-19.85-.89-29.8-1.15-3.41-.09-6.81-.16-10.22-.22.24,2.95.47,5.9.71,8.85,3.43,42.86,6.71,85.73,9.86,128.6.14,1.97.29,3.94.43,5.91,1.95.44,3.9.88,5.84,1.32,3.31.76,6.62,1.54,9.92,2.33.35.08.71.17,1.06.26.36-.01.73-.02,1.09-.03,9.92-.29,19.85-.44,29.77-.45,2.99,0,5.97,0,8.96.03-.29-2.95-.58-5.9-.88-8.85-1.49-14.93-3.05-29.85-4.68-44.78,7.64,15.56,14.95,31.2,21.94,46.92.71,1.6,1.42,3.21,2.13,4.82,1.77,0,3.54,0,5.31,0,8.14.03,16.29.16,24.43.38,2.7.07,5.39.16,8.09.25.09-2.67.18-5.33.27-8,1.48-43.75,2.8-87.51,3.96-131.28.07-2.69.14-5.38.21-8.07t0,0Z"/>
    </g>
    <g>
      <path class="st18" d="M420.29,228.22c4.06-36.64,8.28-73.27,12.64-109.88-6.02-1.03-12.05-2.01-18.09-2.95,1.58-8.37,3.19-16.74,4.82-25.1,34.65,2.18,69.23,5.9,103.63,11.15-2.75,9.82-5.47,19.64-8.16,29.47-11.32-2.26-22.68-4.34-34.07-6.26-8.16,36.72-15.96,73.51-23.39,110.35-12.4-2.49-24.86-4.75-37.37-6.78Z"/>
      <path class="st22" d="M517.63,104.63c-1.97,7.17-3.93,14.35-5.87,21.53-11.39-2.23-22.82-4.28-34.29-6.17-8.03,36.7-15.71,73.47-23.01,110.28-9.87-1.94-19.77-3.73-29.71-5.39,4.21-36.61,8.58-73.2,13.09-109.78-5.93-1.04-11.87-2.03-17.81-2.97,1.14-5.87,2.29-11.74,3.45-17.61,31.47,2.09,62.88,5.46,94.15,10.09M528.97,98.27c-3.39-.53-6.77-1.05-10.16-1.55-31.48-4.67-63.1-8.05-94.79-10.16-2.74-.18-5.48-.35-8.23-.52-.45,2.34-.9,4.69-1.34,7.03-1.12,5.88-2.22,11.75-3.31,17.63-.49,2.65-.98,5.29-1.47,7.94,2.98.45,5.95.91,8.92,1.38,3.15.5,6.3,1.01,9.45,1.54-3.92,34.14-7.72,68.28-11.38,102.44-.27,2.52-.54,5.03-.81,7.55,2.53.4,5.05.81,7.57,1.23,9.86,1.64,19.69,3.42,29.48,5.35,2.64.52,5.28,1.05,7.92,1.59.54-2.62,1.07-5.23,1.61-7.85,7.07-34.24,14.46-68.43,22.16-102.56,8.53,1.47,17.04,3.03,25.53,4.69,2.78.54,5.56,1.1,8.33,1.66.68-2.44,1.35-4.89,2.04-7.33,2-7.17,4.01-14.33,6.04-21.49.81-2.86,1.62-5.71,2.44-8.57h0Z"/>
    </g>
    <g>
      <path class="st20" d="M505.44,238.54c6.48-44.75,12.9-89.5,19.25-134.27,29.41,3.02,58.8,7.16,88.11,12.44-3.15,11.31-6.29,22.62-9.42,33.93-13.74-3.41-27.53-6.56-41.37-9.45-1.94,10.1-3.89,20.2-5.83,30.29,10.29,2.78,20.54,5.71,30.74,8.78-1.86,8.37-3.72,16.74-5.59,25.11-10.44-1.17-20.88-2.18-31.31-3.04-1.31,5.13-2.62,10.25-3.92,15.38,14.76,2.6,29.49,5.51,44.16,8.74-2.87,9.35-5.72,18.7-8.56,28.06-25.24-6.28-50.68-11.61-76.26-15.97Z"/>
      <path class="st22" d="M607.16,119.76c-2.37,8.64-4.73,17.29-7.09,25.93-13.85-3.38-27.76-6.5-41.71-9.36-2.38,12.65-4.77,25.3-7.15,37.94,10.27,2.73,20.49,5.61,30.66,8.64-1.31,6.01-2.63,12.03-3.94,18.04-10.41-1.13-20.81-2.1-31.2-2.92-1.92,7.61-3.83,15.22-5.73,22.84,14.7,2.52,29.37,5.36,44,8.51-2.04,6.76-4.08,13.53-6.1,20.3-22.81-5.59-45.77-10.39-68.85-14.42,6.27-42.18,12.49-84.37,18.65-126.56,26.18,2.79,52.35,6.47,78.46,11.06M618.47,113.67c-3.36-.62-6.71-1.22-10.07-1.81-26.29-4.61-52.63-8.32-79-11.12-2.92-.31-5.83-.61-8.75-.9-.35,2.52-.69,5.04-1.04,7.55-5.83,42.24-11.72,84.48-17.66,126.71-.36,2.58-.72,5.15-1.09,7.73,2.6.43,5.2.88,7.79,1.33,22.9,3.99,45.69,8.76,68.32,14.31,2.5.61,5.01,1.24,7.51,1.87.74-2.43,1.49-4.86,2.24-7.28,2.08-6.75,4.17-13.5,6.26-20.25.86-2.76,1.71-5.51,2.57-8.27-2.96-.67-5.93-1.32-8.9-1.96-11.78-2.54-23.6-4.88-35.43-7.01.69-2.65,1.37-5.3,2.06-7.94,7.96.68,15.92,1.46,23.89,2.32,2.51.27,5.01.55,7.52.84.53-2.32,1.05-4.64,1.58-6.96,1.36-6,2.72-12.01,4.08-18.01.54-2.4,1.09-4.8,1.63-7.2-2.58-.79-5.15-1.56-7.74-2.33-7.67-2.28-15.36-4.48-23.08-6.59,1.49-7.55,2.97-15.1,4.46-22.65,10.87,2.32,21.7,4.79,32.51,7.43,2.84.69,5.68,1.4,8.52,2.11.71-2.52,1.41-5.04,2.12-7.55,2.42-8.63,4.85-17.25,7.29-25.88.8-2.83,1.6-5.65,2.4-8.48h0Z"/>
    </g>
  </g>
  <polyline class="st19" points="294.63 222.89 405.53 212.99 411.16 275.98 404.27 284.99 394.34 290.54 279.28 300.82 273.77 239.1"/>
  <g>
    <path class="st23" d="M329.73,234.22l6.93,4.8,1.91,37.54-3.95,6.98-22.83,2.04-5.35-47.71,23.29-3.65ZM319.93,275.57l6.46-.46,1.18-3-2.32-25.94-1.57-2.75-7.01,1.11,3.25,31.03Z"/>
    <path class="st23" d="M352.12,270.47l-.7,11.08-10.95,1.52,4.93-47.97,17.31-1.12,14.25,44.21-7.62,1.65-5.27-11.16-11.95,1.79ZM352.69,263.37l9.13-.27-8.39-20.45-.74,20.73Z"/>
  </g>
</svg>